<?xml version="1.0" encoding="UTF-8" standalone="no"?>
<!-- Created with Inkscape (http://www.inkscape.org/) -->

<svg
   width="256"
   height="192"
   viewBox="0 0 67.733333 50.8"
   version="1.1"
   id="svg1"
   inkscape:version="1.3 (0e150ed6c4, 2023-07-21)"
   sodipodi:docname="voxel_texture_atlas.svg"
   inkscape:export-filename="voxel_texture_atlas.webp"
   inkscape:export-xdpi="74.179611"
   inkscape:export-ydpi="74.179611"
   xmlns:inkscape="http://www.inkscape.org/namespaces/inkscape"
   xmlns:sodipodi="http://sodipodi.sourceforge.net/DTD/sodipodi-0.dtd"
   xmlns="http://www.w3.org/2000/svg"
   xmlns:svg="http://www.w3.org/2000/svg">
  <sodipodi:namedview
     id="namedview1"
     pagecolor="#ffffff"
     bordercolor="#000000"
     borderopacity="0.25"
     inkscape:showpageshadow="2"
     inkscape:pageopacity="0.0"
     inkscape:pagecheckerboard="0"
     inkscape:deskcolor="#d1d1d1"
     inkscape:document-units="mm"
     inkscape:zoom="4.0920134"
     inkscape:cx="136.48538"
     inkscape:cy="100.19517"
     inkscape:window-width="1920"
     inkscape:window-height="1018"
     inkscape:window-x="0"
     inkscape:window-y="0"
     inkscape:window-maximized="1"
     inkscape:current-layer="layer1" />
  <defs
     id="defs1">
    <rect
       x="140.61117"
       y="25.565234"
       width="41.01549"
       height="18.757002"
       id="rect10" />
    <rect
       x="139.67471"
       y="24.303248"
       width="34.212032"
       height="14.972955"
       id="rect9" />
    <rect
       x="137.08964"
       y="152.00532"
       width="46.184668"
       height="15.182013"
       id="rect8" />
    <rect
       x="0"
       y="76.476892"
       width="63.01539"
       height="19.816179"
       id="rect3" />
    <rect
       x="0.49230799"
       y="76.680428"
       width="63.015387"
       height="14.729531"
       id="rect2" />
    <rect
       x="0.49230799"
       y="76.680428"
       width="63.015387"
       height="14.729531"
       id="rect2-0" />
    <rect
       x="0"
       y="76.476891"
       width="63.015388"
       height="19.816179"
       id="rect3-3" />
    <rect
       x="0"
       y="76.476891"
       width="63.015388"
       height="19.816179"
       id="rect3-3-5" />
    <rect
       x="0"
       y="76.476891"
       width="63.015388"
       height="19.816179"
       id="rect3-3-5-9" />
    <rect
       x="0"
       y="76.476891"
       width="63.015388"
       height="19.816179"
       id="rect3-3-7" />
    <rect
       x="0"
       y="76.476891"
       width="63.015388"
       height="19.816179"
       id="rect3-3-7-8" />
  </defs>
  <g
     inkscape:label="Atlas"
     inkscape:groupmode="layer"
     id="layer1">
    <rect
       style="fill:#ffffff;fill-opacity:1;stroke:#000000;stroke-width:0.260513;stroke-dasharray:none;stroke-opacity:1"
       id="rect1"
       width="16.672821"
       height="16.672821"
       x="0.13025615"
       y="17.063589"
       inkscape:label="Top" />
    <path
       style="font-size:10.6667px;font-family:System-ui;-inkscape-font-specification:System-ui;white-space:pre;stroke:#000000;stroke-width:0.382811"
       d="m 9.242298,27.653079 0.00492,-0.33888 -2.5395668,-0.03691 0.013766,-0.947235 -0.2939665,-0.0043 -0.032398,2.229266 0.2939666,0.0043 0.013708,-0.943151 z m 0.076551,-2.457315 c 0.00843,-0.579771 -0.4064173,-0.977841 -1.0351846,-0.98698 -0.6083534,-0.0088 -1.0055925,0.348842 -1.0137217,0.908199 -0.00843,0.579773 0.4023933,0.973701 1.0311608,0.982839 0.6083534,0.0088 1.0096162,-0.344699 1.0177455,-0.904058 z M 9.033698,25.146702 c -0.00551,0.379712 -0.3154741,0.632484 -0.7686767,0.625897 -0.4368687,-0.0064 -0.7152091,-0.243169 -0.7099283,-0.606546 0.00551,-0.379713 0.3196169,-0.636508 0.7687365,-0.629981 0.4327902,0.0062 0.7151493,0.247247 0.7098682,0.610626 z M 9.3535608,22.80727 C 9.3615108,22.26016 8.94223,21.886529 8.305297,21.877271 c -0.5920213,-0.0086 -0.9929882,0.324523 -1.0003458,0.830803 -0.0041,0.281721 0.1145367,0.548889 0.324414,0.719375 l 0.2052145,-0.07054 c -0.1571565,-0.145215 -0.2480964,-0.350726 -0.24507,-0.558955 0.00534,-0.367461 0.3027509,-0.599997 0.7518703,-0.593471 0.4409531,0.0064 0.7317783,0.227075 0.7266158,0.582288 -0.00427,0.29397 -0.199729,0.536155 -0.4906237,0.60135 l 0.222601,0.138005 c 0.3442686,-0.08483 0.5484248,-0.363644 0.5535871,-0.718858 z m 0.8325812,0.877857 0.0047,-0.326634 -2.6253078,-0.03816 -0.230067,0.09466 -0.00332,0.228643 z"
       id="text2"
       aria-label="Top" />
    <rect
       style="fill:#ffffff;fill-opacity:1;stroke:#0006c7;stroke-width:0.260513;stroke-dasharray:none;stroke-opacity:1"
       id="rect1-3-2"
       width="16.672821"
       height="16.672821"
       x="33.996922"
       y="17.063589"
       inkscape:label="Bottom" />
    <path
       d="m 40.766047,20.3703 0.01323,0.721955 c 0.0088,0.477327 0.237618,0.753662 0.616497,0.746726 0.349044,-0.0064 0.573953,-0.273125 0.566689,-0.669904 l -0.01238,-0.674223 -0.205846,0.0038 0.01188,0.647373 c 0.0048,0.262532 -0.159147,0.435637 -0.415707,0.440334 -0.238667,0.0043 -0.342719,-0.136972 -0.34878,-0.468119 l -0.0092,-0.504177 1.646778,-0.03014 0.0065,0.352027 c 0.0058,0.31623 -0.107718,0.47349 -0.3434,0.477804 -0.18198,0.0034 -0.288252,-0.09619 -0.394709,-0.368795 l 0.0066,0.357996 c 0.0746,0.16277 0.25855,0.266837 0.458431,0.263178 0.316228,-0.0058 0.493568,-0.2627 0.485485,-0.704226 l -0.01151,-0.629476 z m 0.01463,2.431926 c 0.0078,0.423628 0.320278,0.704398 0.779704,0.695989 0.44451,-0.0082 0.726046,-0.278893 0.718564,-0.687605 -0.0078,-0.423627 -0.317237,-0.70147 -0.776666,-0.693059 -0.444511,0.0082 -0.729083,0.275964 -0.721602,0.684675 z m 0.209432,0.02899 c -0.005,-0.277451 0.215226,-0.46949 0.546371,-0.475551 0.319213,-0.0059 0.528173,0.160436 0.533034,0.425949 0.005,0.277451 -0.218156,0.472528 -0.546319,0.478534 -0.31623,0.0058 -0.528226,-0.163419 -0.533086,-0.428932 z m -0.165134,1.575744 c 0.0019,0.09844 0.02748,0.19646 0.05857,0.26453 l 0.172048,-0.05687 c -0.02171,-0.04438 -0.03483,-0.10978 -0.03575,-0.160497 -0.0027,-0.149165 0.09093,-0.249361 0.23413,-0.251982 l 1.440929,-0.02638 -0.0043,-0.238667 -1.473746,0.02698 c -0.238666,0.0043 -0.396594,0.180348 -0.391787,0.442877 z m 1.24146,-0.652412 0.01511,0.826372 0.199877,-0.0038 -0.01511,-0.826373 z m -1.221746,1.729381 c 0.0019,0.09844 0.02748,0.196459 0.05857,0.264529 l 0.172047,-0.05687 c -0.02171,-0.04436 -0.03483,-0.10978 -0.03575,-0.160496 -0.0027,-0.149166 0.09093,-0.249362 0.234131,-0.251983 l 1.44093,-0.02638 -0.0043,-0.238666 -1.473747,0.02698 c -0.238667,0.0043 -0.396594,0.180349 -0.391788,0.442878 z m 1.241459,-0.652412 0.01512,0.826372 0.199876,-0.0038 -0.01512,-0.826371 z m -1.235077,1.816168 c 0.0078,0.423628 0.320277,0.704398 0.779703,0.695988 0.444511,-0.0082 0.726047,-0.278892 0.718565,-0.687605 -0.0078,-0.423626 -0.317239,-0.701468 -0.776665,-0.693059 -0.444511,0.0082 -0.729084,0.275965 -0.721603,0.684676 z m 0.209432,0.02899 c -0.005,-0.277449 0.215226,-0.469489 0.546372,-0.475551 0.319211,-0.0059 0.528172,0.160437 0.533033,0.425949 0.005,0.277452 -0.218157,0.472528 -0.546319,0.478534 -0.31623,0.0058 -0.528226,-0.163418 -0.533086,-0.428932 z m -0.123841,3.016402 0.0043,0.238665 0.94272,-0.01725 c 0.319211,-0.0059 0.521238,-0.218443 0.515393,-0.537655 -0.0038,-0.205846 -0.09698,-0.407073 -0.257826,-0.553343 l -0.151108,0.05948 c 0.124442,0.11411 0.1959,0.267985 0.198903,0.432065 0.0042,0.229716 -0.124766,0.357415 -0.357464,0.361673 z m -0.0354,-1.933173 0.0043,0.238666 1.270882,-0.02326 0.165753,-0.07466 -0.0031,-0.16706 z m 0.01769,0.966586 0.0043,0.238666 0.942721,-0.01725 c 0.319211,-0.0059 0.521236,-0.218442 0.515449,-0.534671 -0.0039,-0.208827 -0.09705,-0.410056 -0.25788,-0.556326 l -0.151111,0.05948 c 0.124445,0.114108 0.1959,0.267982 0.198904,0.432065 0.0042,0.229716 -0.124768,0.357413 -0.357464,0.361675 z"
       id="text2-6-3"
       style="font-size:10.6667px;font-family:System-ui;-inkscape-font-specification:System-ui;white-space:pre;stroke:#000000;stroke-width:0.279729"
       inkscape:label="text2-6-3"
       aria-label="Bottom" />
    <rect
       style="fill:#ffffff;fill-opacity:1;stroke:#a300c7;stroke-width:0.260513;stroke-dasharray:none;stroke-opacity:1"
       id="rect1-3-2-3"
       width="16.672821"
       height="16.672821"
       x="33.996922"
       y="0.13025615"
       inkscape:label="Left" />
    <rect
       style="fill:#ffffff;fill-opacity:1;stroke:#c72100;stroke-width:0.260513;stroke-dasharray:none;stroke-opacity:1"
       id="rect1-3-2-3-9"
       width="16.672821"
       height="16.672821"
       x="33.996922"
       y="33.996922"
       inkscape:label="Right" />
    <text
       xml:space="preserve"
       transform="matrix(0.34204707,0.00716016,-0.00716016,0.34204707,-7.8575773,-47.581835)"
       id="text8"
       style="font-style:normal;font-variant:normal;font-weight:normal;font-stretch:normal;font-size:10.6667px;font-family:System-ui;-inkscape-font-specification:System-ui;white-space:pre;shape-inside:url(#rect8);display:inline;fill:#000000;fill-opacity:1;stroke:#000000;stroke-width:1;stroke-dasharray:none;stroke-opacity:1"><tspan
         x="137.08984"
         y="161.58469"
         id="tspan1">Right</tspan></text>
    <rect
       style="fill:#ffffff;fill-opacity:1;stroke:#00c784;stroke-width:0.260513;stroke-dasharray:none;stroke-opacity:1"
       id="rect1-3"
       width="16.672821"
       height="16.672821"
       x="17.063589"
       y="17.063589"
       inkscape:label="Front" />
    <rect
       style="fill:#ffffff;fill-opacity:1;stroke:#b8c700;stroke-width:0.260513;stroke-dasharray:none;stroke-opacity:1"
       id="rect1-3-2-3-9-4"
       width="16.672821"
       height="16.672821"
       x="50.930256"
       y="17.063589"
       inkscape:label="Back" />
    <path
       d="m 57.955101,20.967626 0.0032,1.051184 c 0.0021,0.694996 0.329094,1.102328 0.880746,1.100672 0.508218,-0.0015 0.841537,-0.38478 0.839802,-0.962495 l -0.0029,-0.981683 -0.299716,9.42e-4 0.0029,0.942588 c 0.0011,0.382247 -0.241358,0.630571 -0.614918,0.631692 -0.3475,9.82e-4 -0.495812,-0.20701 -0.49726,-0.689166 l -0.0021,-0.73409 2.397738,-0.0072 0.0016,0.51256 c 0.0015,0.460433 -0.167345,0.686815 -0.5105,0.687847 -0.264967,8.36e-4 -0.417442,-0.146439 -0.566329,-0.545614 l 0.0016,0.521247 c 0.104977,0.238591 0.370404,0.394171 0.661434,0.393297 0.460435,-0.0015 0.724294,-0.371396 0.722364,-1.014267 l -0.0027,-0.916527 z m 0.012,3.991884 7.61e-4,0.243248 1.359586,-0.0041 c 0.499528,-0.0014 0.77664,-0.297708 0.774998,-0.845018 -7.87e-4,-0.273656 -0.07557,-0.568806 -0.202202,-0.794303 l -0.256018,0.08765 c 0.09622,0.2169 0.144639,0.433944 0.145254,0.638098 0.0012,0.37356 -0.154678,0.565156 -0.463084,0.566082 l -1.116338,0.0034 z m -0.04566,-0.742647 c 0.0014,0.499528 0.315386,0.876493 0.780345,0.93591 l 0.06042,-0.126152 c -0.321632,-0.0642 -0.535334,-0.350235 -0.536418,-0.710765 -8.68e-4,-0.277998 0.13762,-0.460855 0.346117,-0.461479 0.264965,-8.35e-4 0.374486,0.307282 0.376716,1.050061 l 0.238907,-6.8e-4 c -0.0029,-0.97734 -0.199664,-1.398094 -0.655761,-1.396725 -0.373559,0.0012 -0.61163,0.279841 -0.610339,0.70987 z m 0.0075,2.493296 c 7.12e-4,0.251937 0.06235,0.512376 0.167122,0.685811 l 0.251701,-0.07894 c -0.08305,-0.173501 -0.131406,-0.364482 -0.131892,-0.525198 -0.0012,-0.434376 0.302011,-0.682879 0.810229,-0.684407 0.50387,-0.0015 0.778255,0.240915 0.779561,0.675288 5.35e-4,0.165062 -0.03803,0.351961 -0.115696,0.525944 l 0.28259,0.08169 c 0.09065,-0.191399 0.137812,-0.395696 0.137191,-0.604197 -0.0019,-0.621153 -0.463552,-1.036768 -1.154204,-1.034693 -0.647214,0.0019 -1.028394,0.359277 -1.026594,0.958711 z m 0.05102,2.532265 0.0015,0.460435 1.239033,-1.094006 -0.212922,-0.02542 1.067279,1.017579 -0.0012,-0.412653 -0.980157,-0.93531 z m -0.004,-1.324836 9.83e-4,0.347499 3.210012,-0.0096 -9.82e-4,-0.347499 z"
       id="text2-6-3-4"
       style="font-size:10.6667px;font-family:System-ui;-inkscape-font-specification:System-ui;white-space:pre;stroke:#000000;stroke-width:0.407225"
       inkscape:label="text2-6-3"
       aria-label="Back" />
    <path
       style="font-size:10.6667px;font-family:System-ui;-inkscape-font-specification:System-ui;white-space:pre;stroke:#000000;stroke-width:0.401604"
       d="m 26.633793,29.67748 0.01363,-0.35501 -1.379467,-0.0529 0.05226,-1.364442 -0.308452,-0.01183 -0.05226,1.364443 -0.97676,-0.03754 0.05701,-1.488482 -0.308454,-0.01183 -0.07059,1.843496 z m 0.09073,-2.369594 0.01324,-0.342172 -1.585101,-0.06077 -0.482107,0.04149 -0.01073,0.282302 z m -1.330755,-0.3166 c -0.256743,-0.12977 -0.405753,-0.383941 -0.394944,-0.666237 0.0032,-0.08127 0.01906,-0.157759 0.04725,-0.225216 l -0.313743,-0.0977 c -0.03343,0.08867 -0.054,0.177838 -0.05761,0.271938 -0.0105,0.278028 0.129468,0.540404 0.372049,0.703912 z m 1.467114,-2.12407 c 0.02336,-0.607363 -0.402277,-1.034902 -1.06202,-1.060197 -0.638324,-0.02452 -1.064173,0.340434 -1.086611,0.926415 -0.02336,0.607365 0.398156,1.030463 1.057902,1.055758 0.638324,0.02452 1.06829,-0.335992 1.090729,-0.921976 z m -0.298082,-0.05854 c -0.01532,0.39778 -0.346853,0.654931 -0.822386,0.6367 -0.458393,-0.01757 -0.744656,-0.272712 -0.730079,-0.653386 0.01532,-0.397779 0.3513,-0.659045 0.822547,-0.640978 0.454114,0.01734 0.744495,0.27699 0.729918,0.657664 z m 0.370218,-2.945721 0.01324,-0.342171 -1.35376,-0.05192 c -0.458396,-0.01757 -0.765622,0.27478 -0.783311,0.736721 -0.01155,0.299403 0.105749,0.599465 0.324457,0.82631 l 0.221599,-0.07289 c -0.169095,-0.177825 -0.25895,-0.408297 -0.249777,-0.647823 0.01278,-0.333624 0.208317,-0.51032 0.542473,-0.497508 z m -0.05389,1.407215 0.01324,-0.342174 -1.825009,-0.06997 -0.243837,0.09345 -0.0092,0.239521 z m 0.141292,-3.130123 c 0.0055,-0.141146 -0.02346,-0.283612 -0.06253,-0.383632 l -0.251422,0.06745 c 0.02753,0.06531 0.04108,0.160066 0.03828,0.232779 -0.0082,0.213863 -0.150686,0.349755 -0.356319,0.341872 l -2.069197,-0.07933 -0.01324,0.342174 2.116325,0.08113 c 0.342718,0.01327 0.583563,-0.226068 0.597975,-0.602468 z m -1.833863,0.833514 0.04538,-1.184797 -0.287034,-0.01099 -0.04538,1.184797 z"
       id="text2-6"
       aria-label="Front" />
    <text
       xml:space="preserve"
       transform="matrix(-0.46459348,8.5358747e-5,-8.5358747e-5,-0.46459348,111.60329,56.454779)"
       id="text9"
       style="font-style:normal;font-variant:normal;font-weight:normal;font-stretch:normal;font-size:10.6667px;font-family:System-ui;-inkscape-font-specification:System-ui;white-space:pre;shape-inside:url(#rect10);display:inline;fill:#000000;fill-opacity:1;stroke:#000000;stroke-width:1;stroke-dasharray:none;stroke-opacity:1"><tspan
         x="140.61133"
         y="35.143284"
         id="tspan2">Left</tspan></text>
  </g>
</svg>
